<svg width="90" height="87" viewBox="0 0 90 87" fill="none" xmlns="http://www.w3.org/2000/svg">
<path d="M49.2817 33.2229C51.6025 33.575 52.7398 35.3916 55.9895 34.4794C56.8788 34.2303 54.4739 32.4422 53.7729 31.2832C53.0719 30.1247 55.312 29.3184 55.0044 26.9753C54.6968 24.6322 54.6043 20.5027 55.3108 19.8975C56.0179 19.2924 57.1742 20.097 59.5373 20.7122C61.9011 21.3279 64.0034 20.6587 64.7016 22.1286C64.9267 22.6017 65.5859 23.7312 66.5912 22.8296C67.5958 21.928 68.4807 22.6803 68.1787 23.802C67.8767 24.9236 69.0429 26.1044 71.279 26.885C72.6983 27.3804 76.6462 29.2354 79.3437 30.5265L81.8562 26.4905C81.8562 26.4905 78.066 23.0753 75.4827 21.8517C73.8133 21.0616 72.2425 19.6908 71.5025 18.9642C69.949 17.4385 69.4915 16.0956 68.3403 16.9615C67.1891 17.8269 66.658 18.2721 66.3282 16.9493C66.1599 16.2745 66.5522 15.1979 65.1201 15.6153C63.688 16.0332 58.7388 12.7668 56.7078 11.7638C52.8914 9.87817 49.3352 8.51634 39.7934 12.7083C38.0164 13.489 30.4221 16.5704 29.2898 17.482C28.1581 18.3936 26.73 17.8397 26.0658 18.8098C25.0171 20.3422 23.96 19.8546 22.7916 19.8847C21.6234 19.9148 12.6004 24.0444 12.6004 24.0444L13.6384 27.9198C15.9607 27.4545 20.8174 26.4398 22.638 25.7439C25.0683 24.8155 26.4787 23.4225 27.0855 22.9918C27.6928 22.5616 27.6221 23.7345 28.3108 23.8488C28.9995 23.9624 29.1656 22.6591 29.3316 22.2111C29.4971 21.7631 30.2165 21.3591 31.0434 22.4724C31.8703 23.5852 34.8498 22.3237 35.7981 21.8483C36.7471 21.3725 38.0677 20.6698 38.8043 21.2148C39.4072 21.6611 40.1768 22.687 39.7265 24.3909C39.2763 26.0949 39.4435 27.9226 39.877 28.9612C40.5808 30.6452 39.6909 33.6915 38.9854 35.6116C40.3372 35.9398 42.8893 36.4068 45.6431 36.876C46.3468 35.3436 47.7015 32.9827 49.2817 33.2229Z" fill="#0E5EA1"/>
<path d="M59.1522 35.1726C59.6827 32.6439 56.7673 31.0687 56.7974 29.709C56.8275 28.3494 56.9723 24.2227 56.7288 22.1414C57.9742 22.6925 60.7575 22.8842 63.2789 24.0254C64.3588 24.5141 63.8456 25.57 64.4569 25.6341C65.5931 25.7528 65.7697 23.6354 66.5247 25.5293C66.698 25.964 66.9388 26.6577 69.1882 27.3542C70.9535 27.9009 78.7345 31.5038 78.7345 31.5038L79.3437 30.5265C76.6462 29.2354 72.6983 27.3804 71.279 26.885C69.0429 26.1044 67.8767 24.9236 68.1787 23.802C68.4807 22.6803 67.5958 21.928 66.5912 22.8296C65.5859 23.7312 64.9267 22.6017 64.7016 22.1286C64.0034 20.6587 61.9011 21.3279 59.5373 20.7122C57.1742 20.097 56.0179 19.2924 55.3108 19.8975C54.6043 20.5027 54.6968 24.6322 55.0044 26.9753C55.312 29.3184 53.0719 30.1247 53.7729 31.2832C54.4739 32.4422 56.8788 34.2303 55.9895 34.4794C52.7398 35.3916 51.6025 33.575 49.2817 33.2229C47.7015 32.9827 46.3468 35.3436 45.6431 36.876C50.8024 37.7553 56.6687 38.6429 56.6687 38.6429C56.6687 38.6429 58.8563 36.584 59.1522 35.1726Z" fill="#F79647"/>
<path d="M39.877 28.9612C39.4435 27.9226 39.2763 26.0949 39.7265 24.3909C40.1768 22.687 39.4072 21.6611 38.8043 21.2148C38.0677 20.6698 36.7471 21.3725 35.7981 21.8483C34.8498 22.3237 31.8703 23.5852 31.0434 22.4724C30.2165 21.3591 29.4971 21.7631 29.3316 22.2111C29.1656 22.6591 28.9995 23.9624 28.3108 23.8488C27.6221 23.7345 27.6928 22.5616 27.0855 22.9918C26.4787 23.4225 25.0683 24.8155 22.638 25.7439C20.8174 26.4398 15.9607 27.4545 13.6384 27.9198L13.944 29.0615C13.944 29.0615 23.7924 27.1263 27.2264 25.2864C27.9781 24.8841 28.1452 24.9481 28.7192 25.1788C30.0381 25.7098 29.9295 24.2862 30.7513 24.1691C31.2306 24.1006 31.8011 24.8874 32.2486 24.7397C33.4098 24.3558 36.3007 23.3361 38.0487 22.9884C38.0487 22.9884 37.8291 25.7427 37.7082 27.7114C37.5873 29.68 39.245 29.0537 38.446 30.9405C37.6469 32.8272 37.2936 34.6538 37.9991 35.2896C38.0866 35.3681 38.4377 35.4785 38.9854 35.6116C39.6909 33.6915 40.5808 30.6452 39.877 28.9612Z" fill="#F79647"/>
<path d="M12.3369 25.9456C12.3369 25.9456 21.3926 22.4858 22.5367 22.0757C23.6809 21.665 24.8242 22.3883 25.7648 21.5664C26.7054 20.7439 26.3343 19.6301 27.2888 19.4869C28.2439 19.3442 28.3754 19.776 28.9543 19.625C29.5338 19.474 41.6712 13.8227 41.6712 13.8227L40.9022 13.0326C40.9022 13.0326 30.9012 17.3421 29.8698 18.042C28.8384 18.7419 27.7245 18.8132 27.2637 18.724C26.8023 18.6343 26.1799 19.595 25.689 20.418C25.1981 21.2415 24.3617 21.1468 23.3792 21.0783C22.3969 21.0103 21.8717 21.2287 20.4255 21.7932C18.9794 22.3571 12.2638 25.3883 12.2638 25.3883L12.3369 25.9456Z" fill="white"/>
<path d="M51.4648 11.6457C51.4648 11.6457 59.4158 16.0009 60.7949 16.5681C62.1746 17.1359 63.6311 16.8245 64.0396 17.6547C64.448 18.485 64.5394 19.7493 65.6578 19.7131C66.7761 19.6769 67.5183 18.8444 68.1552 19.1308C68.7921 19.4172 68.8189 20.9785 70.5981 21.9815C72.3773 22.9851 81.4917 28.5277 81.4917 28.5277L81.9987 27.5777C81.9987 27.5777 71.6685 21.5803 70.9095 20.9312C70.1506 20.282 69.3844 19.3632 68.8712 18.524C68.2873 17.5689 66.2205 19.4356 65.5898 18.6254C64.959 17.8146 65.5129 16.8969 64.1906 16.5219C62.8683 16.1463 61.005 15.642 59.3043 14.6675C57.6037 13.6923 52.3007 10.9441 52.3007 10.9441L51.4648 11.6457Z" fill="white"/>
<path d="M44.2149 15.3913C44.2149 15.3913 43.9424 18.1027 43.51 19.3219C43.0776 20.5417 43.861 21.231 44.757 22.1398C45.653 23.0492 46.2888 23.7657 44.9231 24.7225C43.5579 25.6798 43.2542 26.6728 44.4439 27.7432C45.633 28.813 44.7247 29.348 44.3603 30.7248C43.9959 32.1023 44.1023 37.4098 44.1023 37.4098L46.4482 37.1022C46.4482 37.1022 45.867 35.0684 45.7912 33.1582C45.7461 32.0126 45.9924 30.3237 46.1935 30.0166C46.9185 28.9105 47.537 28.1271 46.7212 27.2623C45.677 26.1551 46.5647 25.5672 47.5766 24.7247C48.5885 23.8816 47.5994 22.4958 46.9007 21.5001C46.2013 20.5043 45.3159 19.7621 45.5032 18.3418C45.6904 16.922 46.247 15.237 46.247 15.237L44.2149 15.3913Z" fill="white"/>
<path d="M57.2772 38.0233C53.8525 35.4272 40.8019 35.1714 40.8019 35.1714L39.7527 40.1825C42.395 40.3781 46.3646 40.7865 48.1728 41.551C51.0101 42.7507 54.2799 48.0042 55.0294 49.4117C56.0552 51.3363 56.233 52.7957 56.3583 53.6477C56.4837 54.4997 55.6585 55.0012 55.0422 54.9254C54.2409 54.8268 53.2173 55 53.8692 56.3736C54.5206 57.7466 54.315 58.2291 53.0094 58.3383C51.7496 58.4437 49.2883 61.0174 48.7295 62.4601C48.36 63.4146 46.5964 66.1489 45.4446 67.8902L49.7174 71.3968C49.7174 71.3968 50.5649 70.3113 51.1026 69.0971C51.8465 67.416 53.6698 68.0183 54.2832 66.963C54.5919 66.4331 53.4992 65.4195 54.6666 65.0383C55.9995 64.6026 57.2337 64.2432 57.4215 62.0489C57.5118 60.9957 63.172 55.2837 63.7064 53.0704C64.0307 51.7264 60.6461 40.5764 57.2772 38.0233Z" fill="#7C2887"/>
<path d="M53.0094 58.3383C54.315 58.2291 54.5206 57.7466 53.8692 56.3736C53.2173 55 54.2409 54.8268 55.0422 54.9254C55.6585 55.0012 56.4837 54.4997 56.3583 53.6477C56.233 52.7957 56.0552 51.3363 55.0294 49.4117C54.2799 48.0042 51.0101 42.7507 48.1728 41.551C46.3646 40.7865 42.395 40.3781 39.7527 40.1825L39.3871 41.9277C39.3871 41.9277 48.1276 44.8375 49.3212 45.6404C50.5153 46.444 53.4402 49.2612 53.0078 50.2821C52.3319 51.8768 53.9695 52.1187 53.3789 53.1445C53.0657 53.6878 52.0783 53.9642 51.4788 54.6122C51.0397 55.0858 52.4528 56.0459 51.8599 56.7074C51.3021 57.3292 49.1769 59.2377 48.4246 60.205C47.2093 61.7686 44.3792 67.0159 44.3792 67.0159L45.4446 67.8902C46.5964 66.1489 48.36 63.4146 48.7295 62.4601C49.2883 61.0174 51.7496 58.4437 53.0094 58.3383Z" fill="#62216B"/>
<path d="M42.9037 40.0588C45.4023 34.7691 40.2012 33.1515 38.5223 33.288C36.8434 33.4246 35.3629 35.6724 34.3014 36.9752C33.2393 38.2779 28.8629 45.5469 28.3018 45.8143C27.7407 46.0812 27.1428 45.6878 26.3387 46.5036C25.5341 47.3194 26.3666 48.3569 25.6896 48.3781C24.4397 48.4171 24.1879 49.1632 24.184 50.4203L28.6183 54.357C29.6737 54.045 31.2785 53.4967 31.3548 53.0253C31.5058 52.0903 31.3765 51.3375 32.0346 51.644C32.6927 51.951 32.5322 51.2979 32.1617 50.6164C31.7917 49.935 29.8219 48.621 28.9833 48.1697C28.1452 47.7183 28.8557 47.194 30.1395 47.4748C30.9001 47.6414 31.853 48.6912 33.4828 48.6522C35.1127 48.6132 36.5681 46.1069 38.2665 44.9289C39.1531 44.3149 39.9265 44.0218 40.4653 43.8813C41.4098 42.6833 42.2718 41.3956 42.9037 40.0588Z" fill="#7C2887"/>
<path d="M33.4828 48.6522C31.853 48.6912 30.9001 47.6414 30.1395 47.4748C28.8557 47.194 28.1452 47.7183 28.9833 48.1697C29.8219 48.621 31.7917 49.935 32.1617 50.6164C32.5322 51.2979 32.6927 51.951 32.0346 51.644C31.3765 51.3375 31.5058 52.0903 31.3548 53.0253C31.2785 53.4967 29.6737 54.045 28.6183 54.357L30.4572 55.9892C30.4572 55.9892 31.7806 55.9557 32.1539 54.1214C32.3294 53.2577 33.6779 53.9988 33.8969 53.1039C34.1086 52.2391 33.182 52.2981 33.7414 51.084C34.1599 50.1768 37.6731 47.4225 40.4653 43.8813C39.9265 44.0218 39.1531 44.3149 38.2665 44.9289C36.5681 46.1069 35.1127 48.6132 33.4828 48.6522Z" fill="#62216B"/>
<path d="M52.465 60.2502C52.2773 60.8743 53.7851 63.5027 54.0609 64.0844C54.3362 64.6661 55.781 63.6904 55.1102 62.4306C54.4393 61.1707 52.8172 59.0811 52.465 60.2502Z" fill="#62216B"/>
<path d="M40.3495 10.1194L39.7934 12.7083C39.7934 12.7083 41.9381 16.3391 46.247 15.237C50.556 14.1342 53.5611 10.5897 53.5611 10.5897C53.5611 10.5897 53.3945 8.42659 52.581 6.05005C51.7674 3.67407 50.2133 0.999409 47.6891 2.13669C45.3934 3.172 41.5241 4.52103 40.3495 10.1194Z" fill="#F79647"/>
<path d="M40.9228 10.466L40.7456 11.8407C40.7456 11.8407 42.8358 13.9213 45.2491 13.714C47.6624 13.5067 49.9576 11.4774 50.4886 10.3724C51.2732 8.73973 51.116 5.37637 49.3926 4.86261C47.6691 4.34886 40.7473 5.54019 40.9228 10.466Z" fill="#421B4A"/>
<path d="M50.0712 7.55955C50.1727 9.7823 48.131 12.5361 46.2682 13.1529C43.6225 14.0289 41.3379 11.586 40.4871 9.4123C39.6368 7.23859 38.7775 4.06747 42.1325 2.41253C45.7283 0.638342 49.9024 3.86965 50.0712 7.55955Z" fill="#F9AA6D"/>
<path d="M49.9576 7.3952C49.9576 7.3952 51.0269 1.44132 45.7846 0.209313C39.6201 -1.23946 38.0214 5.23376 38.9497 7.30382C39.8775 9.37389 45.565 6.20275 47.7856 6.30807C48.8827 7.64149 49.9576 7.3952 49.9576 7.3952Z" fill="#421B4A"/>
<path d="M49.8985 4.55282C49.8985 4.55282 50.2936 6.78557 50.0712 7.55955C48.9707 7.33109 47.1464 7.27205 47.1464 7.27205L46.4209 4.5283C46.4209 4.5283 48.7484 4.12376 49.8985 4.55282Z" fill="#FBC62C"/>
<path d="M38.9569 6.29747C39.3191 5.18972 40.6732 4.29872 43.7574 3.66684C44.6746 3.4785 45.3962 3.45844 45.9289 3.56542C46.7413 3.72869 47.6601 4.84925 47.8786 6.26514C48.102 7.71335 46.6421 8.61605 46.0253 8.80774C45.0613 9.10697 42.8842 8.52299 42.4084 8.67233C41.933 8.82222 41.8032 10.5362 41.6316 10.8221C41.4605 11.1079 40.4776 11.513 40.3495 10.1194C40.2224 8.7258 44.5375 6.37435 45.5015 6.30415C45.7645 6.28464 46.0258 6.15092 46.2755 6.00437L45.7266 5.17689C44.9108 5.56082 43.8833 6.04114 43.1177 6.38884C41.636 7.06141 39.3637 7.76796 39.3637 7.76796C39.3637 7.76796 38.5942 7.40466 38.9569 6.29747Z" fill="#62216B"/>
<path d="M42.6451 4.6002L45.9795 8.06944C45.7906 8.14968 45.5862 8.21598 45.3471 8.24552C45.278 8.25443 45.2123 8.25834 45.1465 8.26335L41.8801 4.86432C42.1019 4.77851 42.3615 4.68824 42.6451 4.6002Z" fill="#80D6F7"/>
<path d="M45.8994 4.16999C46.5296 4.32323 47.2389 5.64719 47.2083 6.40946C47.201 6.5861 47.1525 6.79005 47.0656 6.99677L44.3698 4.19173C44.9543 4.10035 45.5037 4.07415 45.8994 4.16999Z" fill="#80D6F7"/>
<path d="M41.0181 5.26719L43.7881 8.14913C43.1177 7.99756 42.6212 7.79584 42.0752 8.05662C41.1808 8.48456 41.236 9.66807 40.9228 10.466C40.6091 11.2639 39.4283 8.61438 39.3637 7.76796C39.2712 6.56102 39.7243 5.95814 41.0181 5.26719Z" fill="#80D6F7"/>
<path d="M44.3698 4.19173L47.0656 6.99677C46.8907 7.41246 46.539 7.83151 45.9795 8.06944L42.6451 4.6002C43.1795 4.4347 43.7914 4.28144 44.3698 4.19173Z" fill="white"/>
<path d="M41.4371 5.0532C41.5547 4.99581 41.7068 4.93174 41.8801 4.86432L45.1465 8.26335C44.6093 8.30403 44.1698 8.23605 43.7881 8.14913L41.0181 5.26719C41.1502 5.19698 41.2878 5.1262 41.4371 5.0532Z" fill="white"/>
<path d="M78.7345 31.5038C78.7345 31.5038 81.1746 32.7737 81.7803 33.1476C82.6295 33.6725 84.0393 33.5059 83.019 32.3352C82.4306 31.6598 82.4362 31.0057 83.6866 31.6949C85.0685 32.4567 86.6961 34.2464 88.4575 33.03C90.2194 31.8131 87.6456 29.1479 85.9372 28.17C84.2287 27.1921 81.8562 26.4905 81.8562 26.4905L78.7345 31.5038Z" fill="#7C2887"/>
<path d="M22.6892 52.0451C22.6892 52.0451 24.8944 48.8344 27.5858 50.4041C30.1211 51.8829 30.9241 53.5379 30.5892 55.4458C30.3134 57.0166 29.9868 57.8881 29.9868 57.8881L22.6892 52.0451Z" fill="#7C2887"/>
<path d="M23.2963 51.4199C23.2963 51.4199 25.2861 51.8256 26.7578 52.7779C29.4603 54.5264 30.1418 56.9927 30.1418 56.9927L29.6659 57.6468L22.6892 52.0451L23.2963 51.4199Z" fill="white"/>
<path d="M22.9642 52.2881C22.9642 52.2881 25.6913 49.848 28.2077 51.6885C30.7642 53.5585 29.6659 57.6468 29.6659 57.6468L30.3574 58.1662C30.3574 58.1662 32.8783 54.0573 29.3388 50.7841C25.9108 47.6136 22.3891 51.7799 22.3891 51.7799L22.9642 52.2881Z" fill="#421B4A"/>
<path d="M42.556 67.9142C42.556 67.9142 44.7615 64.7029 47.4523 66.2731C49.9882 67.752 50.7906 69.4064 50.4557 71.3149C50.1799 72.8851 49.8533 73.7571 49.8533 73.7571L42.556 67.9142Z" fill="#7C2887"/>
<path d="M43.1628 67.2889C43.1628 67.2889 45.1526 67.6946 46.6243 68.6463C49.3268 70.3949 50.0082 72.8617 50.0082 72.8617L49.5324 73.5159L42.556 67.9142L43.1628 67.2889Z" fill="white"/>
<path d="M42.8307 68.1571C42.8307 68.1571 45.5583 65.7171 48.0741 67.5575C50.6307 69.4276 49.5324 73.5159 49.5324 73.5159L50.2239 74.0347C50.2239 74.0347 52.7447 69.9263 49.2058 66.6526C45.7778 63.4826 42.2557 67.6489 42.2557 67.6489L42.8307 68.1571Z" fill="#421B4A"/>
<path d="M69.4318 85.2938C66.5476 85.5429 63.5671 84.7288 61.1393 82.7746L7.42842 39.5506C5.00017 37.5964 3.56772 34.8594 3.19444 31.9886C3.19444 31.9886 2.56172 31.8515 1.84754 31.9802C2.22561 35.2466 3.83263 38.3721 6.59041 40.5915L60.3012 83.8161C63.1358 86.0973 66.6452 86.9861 69.9996 86.5776C69.7762 85.9798 69.4318 85.2938 69.4318 85.2938Z" fill="#421B4A"/>
<path d="M12.6004 24.0444C12.6004 24.0444 7.06974 23.4698 5.78942 23.4136C4.50893 23.3567 3.20097 24.8016 5.33713 26.2431C7.47328 27.6852 8.90093 27.7225 9.28836 27.8212C9.67585 27.9204 9.65234 28.3728 9.05963 28.6748C8.46669 28.9774 7.86707 30.1737 9.23788 30.0339C10.609 29.8946 13.944 29.0615 13.944 29.0615L12.6004 24.0444Z" fill="#7C2887"/>
<path d="M66.8642 81.8324C66.4741 81.6802 65.5731 82.3873 65.5302 82.6615C65.48 82.7657 65.5046 82.8966 65.5837 82.9791C65.7146 83.1145 65.879 83.1245 66.0467 83.0727C66.2635 83.0371 66.5878 82.7116 66.9216 82.3316C67.0726 82.1594 67.116 81.9304 66.8642 81.8324Z" fill="#87F1FF"/>
<path d="M72.915 80.9207C72.053 80.602 70.8672 81.4997 70.1417 81.98C69.5934 82.3427 68.5982 82.9607 68.2076 83.7765C68.0042 84.2005 68.2043 84.6234 68.9147 84.3933C69.3482 84.2529 71.6289 83.2137 72.535 82.2647C72.9038 81.9493 73.5107 81.1408 72.915 80.9207Z" fill="#87F1FF"/>
<path d="M68.0566 76.0863C66.7767 76.6709 65.6506 77.6098 64.8287 78.7565C64.6203 79.0206 64.2976 79.6709 64.1104 80.0593C64.0502 80.1847 64.2302 80.251 64.3199 80.1819C65.1864 79.511 66.0668 78.8629 66.8932 78.1425C67.4303 77.6744 68.4222 77.0709 68.3949 76.2808C68.3887 76.1003 68.352 75.9515 68.0566 76.0863Z" fill="#87F1FF"/>
<path d="M69.3398 77.0665C68.9921 77.1751 68.4555 77.456 68.3591 77.8304C68.3162 77.9976 68.4706 78.1625 68.6416 78.1129C69.0467 77.9953 69.366 77.7541 69.5989 77.4036C69.7082 77.2397 69.5276 77.0079 69.3398 77.0665Z" fill="#87F1FF"/>
<path d="M69.044 66.5462C68.3853 66.593 66.8151 67.3758 66.7271 68.5867C66.6619 69.481 69.7873 69.5535 70.1322 69.5401C70.7635 69.5156 71.4361 69.5328 72.0557 69.3829C73.8567 68.9472 73.149 66.2558 69.044 66.5462Z" fill="#87F1FF"/>
<path d="M70.3083 61.6482C69.8324 61.4571 69.2534 61.5005 68.8723 61.8678C68.1724 62.542 68.2532 63.6364 68.3719 64.5117C68.3959 64.6889 68.4466 65.0606 68.9158 64.8823C69.6396 64.6076 70.6125 64.0147 71.0265 62.7498C71.1898 62.2522 70.7535 61.8265 70.3083 61.6482Z" fill="#87F1FF"/>
<path d="M62.6995 62.8468C62.2264 62.6735 61.6859 63.4352 61.4697 63.73C61.1577 64.1557 60.5314 65.4117 60.4311 66.15C60.4116 66.2977 60.6528 66.3177 60.7476 66.2264C61.1293 65.8597 62.9073 64.2482 63.0216 63.3361C63.0394 63.1906 62.8394 62.8981 62.6995 62.8468Z" fill="#87F1FF"/>
<path d="M65.2309 62.3559C64.983 62.5688 64.3511 63.2898 64.8019 63.5606C65.1691 63.7813 65.7413 63.18 65.845 62.9471C65.9308 62.7537 66.0027 62.4991 65.84 62.3247C65.6644 62.1364 65.4025 62.2088 65.2309 62.3559Z" fill="#87F1FF"/>
<path d="M0.322125 74.0163L0 74.1589L0.332604 74.0318L0.322125 74.0163Z" fill="#FBC62C"/>
<path d="M1.64267 73.4217L1.0513 73.7571L1.70341 73.5075C1.6658 73.4551 1.64267 73.4217 1.64267 73.4217Z" fill="#FBC62C"/>
</svg>
